<svg version="1" xmlns="http://www.w3.org/2000/svg" width="500" height="500" viewBox="0 0 375.000000 375.000000"><path d="M141 26.6c-4 1.7-15.9 18.6-18.8 26.7-1.3 4-2.4 5.3-5.2 6.6-12.6 5.9-23.5 17.4-26.1 27.5-.9 3.5-.9 5 0 5.9 1.5 1.5 2.5.2 4-5.3 1-3.4 3.1-6.2 8.6-11.6 8.8-8.8 20.2-14.8 31.5-16.8 5.9-1 7.1-1.5 5.5-2.2-1.1-.5-4.6-.9-7.7-.9-3.2 0-5.8-.3-5.8-.6 0-.9 11.6-18.1 14.8-21.9l2.9-3.5 8.4 4.2c10.1 5 19.6 13.5 29.8 26.4 6.7 8.4 7.1 9.1 4.5 8.5-9.6-2.4-22.6-3.7-24-2.4-1.8 1.9 1.1 3.6 9.3 5.3 18.2 3.8 31.5 9.7 40.1 17.9 4.3 4.1 6.8 8.1 9.2 15.2l2 5.7-2.3-1.9c-1.2-1-2.4-2.2-2.7-2.5-.3-.3-3.7-2.9-7.7-5.8C199.4 92.5 177 82 170.6 82c-2.1 0-2 2.6.2 4 1.4.9 1.1 1-1.3.5-1.6-.3-6.5-.9-10.8-1.4-7.4-.8-7.9-1.1-12.1-5.4-6.4-6.7-18.2-11.9-23-10.1-3.1 1.2-1.6 2.9 4.5 5.3 8.8 3.5 13.9 8.6 19.2 18.8 5.3 10.4 7.1 16 2.8 8.6-2.9-5-5.1-7.3-5.1-5.6 0 .5.9 3.4 2 6.5 5.9 17 8.8 36.4 6 40.8-.8 1.2-1.3 1.1-3.7-.8-4.8-3.8-25.7-17.5-27.5-18-2.5-.6-3.2 2-1.8 6.4 2.9 8.5-4.4 6.5-16.1-4.6-4.6-4.4-9-8-9.6-8-2 0-1.5 3.4.7 6.3 2 2.5 2.1 3.8 1.9 27.4l-.2 24.8 4.2 7.4c5.5 9.9 7.9 13 18 23.3 4.6 4.9 8.1 8.8 7.6 8.8-.4 0-3.8-1.6-7.6-3.5-4-2-7.1-3-7.4-2.5-.3.6-2 .8-3.7.5-9.4-1.7-18.4 3.7-20.7 12.3l-1.2 4.3-4.6-3.3c-6.4-4.6-11.1-10.4-15.8-19.5-4.4-8.5-5.4-9-10.7-5.1-3.2 2.2-3.5 1.3-1.1-3.6 1.5-3.3 2-3.5 6-3.4 8.1.1 7.3-1.2-5.5-9.6-15.6-10.1-25.5-21.3-33.6-38-7.2-14.7-7.8-13.3 7.1-19C39.8 122 61 116 65.1 116c1.3 0 1.9.7 1.9 2.1 0 3.5 2.1 1.6 6.9-6.3 4.3-7.3 4.6-7.5 6.7-6.2 1.7 1.2 2.3 1.2 3.2.1.8-.9.1-3.4-2.7-9.7-6-13.4-5.9-13.9 1.5-7.4 4.5 4 6.4 5.1 6.4 3.9 0-3.1-3.1-8.4-7.1-12-4.3-3.9-6.9-4.4-9.4-1.8-2.2 2.1-1.6 6.7 1.7 15l2.5 6.1-2.9 2.2c-1.6 1.2-3.6 3.7-4.5 5.5-1.4 2.9-2.2 3.4-4.7 3.3-13.9-.4-51 12.6-55.1 19.2-.4.6-.2 1.7.4 2.3.6.6 1.1 2.2 1.1 3.5 0 3.5 7.7 20.7 12.4 27.7 6.3 9.4 17.6 20.2 27.4 26.1.2.1-1 2.6-2.7 5.6-5.3 9.4-3.5 15.2 4.1 12.6 1.8-.6 3.9-1.5 4.6-2.1 1.5-1.2 1.4-1.4 4.6 5.5 3.9 8.3 11.7 16.4 19.4 20.2 5.8 2.8 6.6 3.5 7.9 7.5 2.9 8.7 8.9 15.1 16.6 18 7.5 2.9 19.3-.2 27-6.9 4.1-3.6 4.7-3.9 7.8-3 4.9 1.4 14.9 1.2 20.2-.4 2.6-.8 4.7-1.2 4.7-.9 0 .3.6.1 1.3-.5.6-.6 1.4-1 1.7-1 .3-.1 1.8-.5 3.3-1.1 1.6-.6 3.2-1.1 3.6-1.1 1.3 0-.1 5.3-2 7.9-1.1 1.3-1.9 2.8-1.9 3.4 0 .5-1.2 3.4-2.7 6.3l-2.6 5.2-5.1-2c-12.7-5-32.5-7.5-37.5-4.9-3.1 1.7-3.7 5.8-1.5 9.9 5.9 11 34.5 26.2 49.3 26.2 4.6 0 4.6 0 2.6 8.4-1.1 4.5-2.2 6.6-4.5 8.4-5 3.9-4.1 9 3.3 16.9 2.4 2.6 2.9 3.8 2.4 6.5-1.2 8.1 4.9 13.1 17.9 14.7 12.3 1.4 20.5-.3 28.4-5.9 7.4-5.2 12.3-16 10.9-23.7-.9-4.4-3.5-9.3-5-9.3-2 0-.7-1.8 1.7-2.4 1.4-.4 4.6-2 7.2-3.6l4.6-2.9 4.6 4.3c2.6 2.4 5.6 4.9 6.8 5.5 4 2.1 3.8 2.3-11.4 9.1-5.9 2.7-6.6 3.3-5.1 4.2 4 2.2 15.3-1.3 24.1-7.5 2.8-2 4.5-2.1 36-2.4 18.2-.1 34-.4 35.1-.7 1.1-.2 4-.5 6.5-.5l4.6-.1 4.1-8.3c4.6-9.1 5.9-12.7 4.5-12.7-.5 0-3 1.6-5.6 3.6l-4.7 3.6-6.2-1.1c-9.7-1.7-10.9-1.9-15.2-2.6-13.5-2-17.7-2.6-23.3-3.6-3.4-.6-6.4-1.5-6.7-1.9-.3-.5 1.7-4.4 4.4-8.7 4-6.4 5.3-7.8 7.2-7.7 4.4.3 15.4 1.5 16.9 1.9.8.2 5.6.6 10.5 1 8.6.6 16.1 1.4 19.6 2 6.2 1.2 11.8 1.5 12.3.6 1.1-1.7 6.6-21.5 6.1-21.9-.2-.2-2.7 1.6-5.6 4.1-5.9 5.2-6.1 5.2-17 .7-4.1-1.7-9.2-3.7-11.4-4.5-8.1-2.9-20-8.4-20.3-9.5-.2-.6 1.6-3 4.1-5.3 3.5-3.3 4.9-5.5 6.3-10.2 2.5-8.7 2.3-18.6-.4-26.6-3.4-10-3.9-10.4-11.9-10.5-3.7-.1-8.6-.7-10.9-1.4-2.2-.7-5.1-1-6.5-.7-3.5.9-8.9 6.5-8.9 9.3 0 1.3-.3 2.4-.7 2.5-12.3 1.2-14 1-15.7-1.5-.9-1.4-3.1-3.3-4.9-4.2-1.7-.9-5.5-3.9-8.4-6.5-4.8-4.6-6.1-5.2-10.5-5.2-2.2 0-2.3 1 .7-9.3 4.4-15.3 3.1-30.4-4-44.5l-3.3-6.6 3.4-2.7c4.7-3.7 6.9-8.2 5.5-11.2-.6-1.3-1.6-2.5-2.3-2.5-2.1-.2-9.1-.7-11.9-.8-2.3-.1-2.7-.6-3.1-4.4-1.3-11.2-10.5-21.8-25.4-29.4-8.2-4.2-9.3-5.1-9.7-7.9-2.7-16.7-28.4-40.9-44.4-42-3.2-.2-6.5-.1-7.3.2zm32 65c10.7.6 12 .9 18 4.2 15.8 8.5 31.2 21.7 38.4 32.6 16 24.2 13.4 51.8-7.4 77.6-3.3 4.1-5.5 7.7-4.9 7.9 1.3.4 7.7-4 11.4-7.9 2.9-3.1 6.9-3.8 12.3-2.4 2.7.8 2.5 1.5-2.1 9.3-8.8 14.9-26.1 27.9-46.1 34.7-8.6 3-14.1 3.2-13.1.6.4-.9 1.4-3.6 2.2-6 1-2.7 2.5-4.8 4.2-5.7 3.9-2 13.1-9.4 13.1-10.5 0-1.1-2.6-.2-11.9 4.2-10.5 4.8-20.5 8.7-26.8 10.3-7.9 1.9-19.5 2.4-20.1.7-.2-.8-2 0-5.3 2.4-8.4 6.1-18.5 9.2-26.1 7.9-5.7-1-12.1-7.1-14.8-14.1-4.8-13-.3-21.2 11.8-21.6 4-.2 5.8.4 9.9 3 6 3.9 15 7.2 19.3 7.2 2.3 0 3.3-.6 3.9-2.2.7-2-.8-4.1-10.8-15.3-18.2-20.3-20.1-22.6-23.7-28.8-3.4-5.8-3.4-5.9-2.3-12.3.6-3.6 1-12.5.7-19.9l-.4-13.3 3.3 2.9c8.1 7 14.5 8 19.3 2.9l2.8-3 11.1 7.5c12.1 8.2 15.5 9.1 19.1 5.3 4.4-4.7 5.1-13.3 2-25.2-1.1-4.2-1.9-10.7-1.9-14.4 0-4.1-.8-9.2-2-13.2-1.1-3.6-2.1-6.7-2.1-6.9 0-.2 1.7-.1 3.8.3 2.1.3 8.9.8 15.2 1.2zm64.6 25.7c.2.2-.5 1.2-1.6 2.2-2.2 2-4.4 1.5-6-1.5-1.1-2-.9-2.1 3-1.6 2.3.2 4.4.6 4.6.9zm10 78.4c1.9 2 3.4 4 3.4 4.4 0 .4 2.3 2.1 5 3.9 3.8 2.5 5 3.8 5 5.7 0 2.7-4.8 14.3-5.9 14.3-.4 0-2.6-2-5-4.4l-4.4-4.5 1.7-4c2.4-6.2 1.9-13.3-1-13.3-2.2.1-9.4-2.3-9.4-3 0-.9 3.7-2.6 5.9-2.7.7-.1 2.9 1.6 4.7 3.6zm52.9 4.9c2.7 1.1 7.6 1.1 11.2-.1.6-.2 1.8 1.1 2.7 2.9 1.8 3.9 4.2 12.4 3.5 13-.2.2-3.9.6-8.1.8l-7.7.3-.7-3.9c-.3-2.2-1.2-4.9-1.8-5.9-1.5-2.5-7.1-5.1-9.6-4.4-2.5.6-2.6-.5-.2-2.5 3.2-2.9 4.7-2.9 10.7-.2zm-7.3 10.1c1.2 1 1.8 3 1.8 5.6 0 3.8-.1 3.9-1.8 2.4-5.4-4.9-12.9-4.5-16.2.8-1.2 1.9-2.5 3.5-2.9 3.5-.4 0-2.1-1.2-3.9-2.8-2.8-2.3-3.2-3.1-2.6-5.8l.6-3.1h9.1c5.3.1 10.1-.4 11.2-1.1 2.6-1.5 2.5-1.5 4.7.5zM244 220.9c0 .5 1.5 1.9 3.3 3 1.7 1.1 3.8 2.5 4.6 3 1.1.7.4 2.3-3.2 7.7-5.2 7.9-9.4 13.1-9.9 12.4-.2-.3-2.2-2.8-4.6-5.7-2.3-2.8-4.2-5.5-4.2-5.9 0-.3 2.7-3.5 6-7.1 3.3-3.5 6-6.8 6-7.3 0-.6.5-1 1-1 .6 0 1 .4 1 .9zm42.7.9c.7.4 2.8 3 4.7 5.7 2.4 3.3 5.1 5.6 8.8 7.4 4.8 2.4 5.3 2.9 5.6 6.3.2 2.5-.6 5.5-2.8 9.7-1.6 3.4-3.2 6.1-3.5 6.1-.2 0-3.5-1.1-7.2-2.5-8.3-3.1-12.7-6.9-11.2-9.6 2.1-4 5-15.3 4.5-17.5-.3-1.2-1.5-2.6-2.6-2.9-2-.6-2.5-1.6-1.3-2.8.9-.9 3.5-.9 5 .1zm-18.9 4.1c2 1.6 5.4 3.4 7.5 4.1 2.9.9 3.7 1.7 3.7 3.5 0 2.4-16.2 29.5-25.6 43-6.3 9-16.5 19.1-23.4 23.2-8.7 5.1-9 5.1-9 .7 0-2.1-1.2-8.1-2.7-13.3-2.5-9-2.6-9.5-.9-10.5 11.8-7.1 24.5-20.5 31.6-33.5 2.5-4.6 6.4-10.1 8.7-12.3 2.4-2.3 4.5-4.9 4.8-5.9.8-2.4 1-2.4 5.3 1zm50.2-1.6c0 .4-.9 3.6-2.1 7-2.1 6.4-3.9 9.4-3.9 6.5 0-2.4-3.8-6.7-8-8.8-2.8-1.4-3.7-2.4-3.4-3.7.4-1.5 1.7-1.8 9-1.8 4.6 0 8.4.4 8.4.8zm-92 16.6c0 .5 2.1 3.2 4.7 6.1l4.6 5.1-5.4 5.1c-9.9 9.1-13.8 12-19.6 14.3-3.1 1.3-6.1 2.1-6.5 1.9-.4-.3-.8-1.7-.8-3.2 0-1.5-1.4-5.6-3-9-3.3-7.1-3.6-8.2-1.7-8.2 1.8 0 23.3-10.6 24.1-11.9.8-1.3 3.6-1.5 3.6-.2zm62.7 19c2.1.6 5.1 1.1 6.6 1.1h2.9l-3.5 6.4c-6.3 11.4-8.6 14.6-10.7 14.6-5.7 0-12.1-2.4-16-5.8l-4.1-3.7 6.7-10.2 6.7-10.3 3.8 3.4c2 1.9 5.5 3.9 7.6 4.5zm-94.3 4.6c3.6 11.1 3.7 10.9-3.4 10.2-6.3-.7-12.8-2.2-14.6-3.4-.5-.5-1.7-1.8-2.6-3.1-1.5-2.2-1.4-2.7.5-7.2l2.2-4.9 7-.3c3.9-.2 7.3-.1 7.6.2.4.3 1.8 4.1 3.3 8.5zm-52.3-1.5c3 .6 9.1 2.2 13.7 3.6 6.7 2 9.1 3.3 12.7 6.9 2.5 2.4 5.4 4.7 6.6 5 1.9.6 2 1.2 1.5 4.8-.4 2.2-.9 4.4-1.1 4.8-.9 1.4-10.8-.3-19.5-3.2-13.4-4.6-31.2-17.4-29.7-21.3.8-1.9 7.6-2.1 15.8-.6zm121.2 17.4c2.7 4 8.2 6.8 13.7 6.9 2.8 0 5 .4 5 .8 0 1.4-14.7 16.4-19.2 19.6l-4.5 3.2-3.5-4.2c-1.9-2.4-5.1-5.4-7.1-6.7l-3.5-2.4 5.7-6.6c3.1-3.6 6.7-8 8-9.8 2.7-3.8 3.4-3.9 5.4-.8zm-53.2 2.3c.1 4.8.9 8.2 4.2 18.3l3.3 9.9-6.6 3.3c-6 2.9-7.3 3.2-16 3.1-5.2 0-10.4-.3-11.5-.6-1.1-.3-2.4-.6-3-.6-3.3-.3-3.6-1.7-1.6-10.2 2-8.6 3.7-20.2 3.4-23-.2-1.3 1.1-1.5 8.5-1.2 4.8.2 10.7 0 13.2-.5 2.5-.6 4.8-1 5.3-1.1.4-.1.7 1.1.8 2.6zm16.3 41.7c-.4 1.1-1.6 3.9-2.7 6.1l-2 4-2.3-5.2c-1.2-2.9-3.1-5.7-4.3-6.4-1.9-1.3-1.8-1.4 1.5-3.6 1.9-1.3 3.4-2.8 3.4-3.2 0-.5 1.6.7 3.5 2.6 2.7 2.7 3.4 4.1 2.9 5.7zm-41.1-.4c2.6.7 4.7 1.6 4.7 1.9 0 .4 2 4.4 4.4 8.9 2.5 4.7 3.9 8.3 3.3 8.5-1.6.5-10.7-1.1-13.9-2.4-2.6-1.1-2.8-1.6-2.8-6.7 0-5.4-.2-5.9-4.7-10.5l-4.8-4.8 4.5 2c2.5 1.1 6.6 2.5 9.3 3.1zm27.3 3.7c.2 1.3 1.8 3.8 3.4 5.7l3.1 3.4-2.8 2c-2.5 1.7-8.6 4.2-10.2 4.2-.4 0-1.3-1.7-2-3.8-.8-2-2.9-6.1-4.7-9L196 325l3.3-.1c1.7 0 5.2-.6 7.7-1.2 3.8-1 4.5-1 4.8.3.1.8.5 2.5.8 3.7z"/><path d="M179 106.1c-6.5 2.7-13 10.6-13 15.8 0 3 2.8 5.1 6.7 5.1 10.5 0 22.3-13.5 16.7-19.1-2.4-2.3-7.1-3.2-10.4-1.8zm6 6.2c0 3.3-12 11.1-13.5 8.7-1-1.7 2.5-5.8 6.8-7.9 4.9-2.4 6.7-2.6 6.7-.8zM207.6 143.5c-14.8 7.9-17.1 9.7-17.7 14.5-.3 1.9.2 2.5 2.9 3.2 2.8.8 4.4.2 12.2-3.9 13-6.9 14.4-8.2 13.5-12.1-.6-3.1-.9-3.3-4.7-3-2.2.1-5 .7-6.2 1.3zM119.5 150.6c-4.9 2.5-8.2 6.3-10.5 11.9-2.6 6.5-2.3 9.6 1.1 11.2 7.2 3.5 22.9-8.4 22.9-17.3 0-6.2-7-9.2-13.5-5.8zm6.8 7.4c-1.1 4.2-14.3 13.1-14.3 9.7 0-3 5.6-8.9 10.5-11.2 3.5-1.6 4.5-1.2 3.8 1.5zM194.5 168.9c-.3.6-.3 2.8.1 5 .6 3.7.4 4.2-1.7 5-1.3.5-3.5.7-4.8.4-2.9-.5-5.1 1.3-5.1 4.1 0 1.2-.6 3.1-1.4 4.1-1.3 1.8-1.5 1.8-4 .2-3-2-4.6-1.5-4.6 1.3 0 2.7 3.9 6 7 6 3.3 0 6.9-3.3 7.7-7 .3-1.6.8-2.9 1.2-2.8 3.2.4 6.5-.6 9.1-2.9 2.9-2.4 3.2-3.1 2.7-6.6-.7-5.2-4.5-9.4-6.2-6.8zM155.2 181.3c-6.7 3.8-21.2 20.7-21.2 24.8 0 2.3 1.9 3.4 3.2 2.1.7-.7 1.6-.7 2.8 0 2.6 1.7 4.3.6 10-6.4 2.8-3.5 6.3-7.6 7.6-9.2 3.9-4.5 4.2-5.8 2.8-9.4-1.6-3.6-1.9-3.7-5.2-1.9zM100.7 228.4c-.8 2.1 1.4 4.1 6.7 6.1 3.5 1.3 4.5 2.3 5 4.6.7 3.6 2.3 3.7 3.6.4.5-1.4 1.3-2.5 1.7-2.4.5.1 2 .1 3.6 0 3.6-.1 3.5-2.6-.3-4.6-1.6-.8-3.4-2.4-4-3.5-1.1-2.1-4-2.8-4-.9 0 .7-1.1.9-3 .5-1.6-.3-4.3-.9-5.9-1.2-2-.4-3-.2-3.4 1zM33 140.4c-.9 1.2-1 1.9-.1 3 1.3 1.5 25.8 8.2 26.8 7.2 1-.9-3.7-5.5-7.7-7.6-6.9-3.4-17.1-4.8-19-2.6z"/></svg>